inDegrees=yes
name=ik_S48_A12_T02
DataType=double
version=3
OpenSimVersion=4.3-2021-08-27-4bc7ad9
endheader
time	pelvis_tilt	pelvis_list	pelvis_rotation	pelvis_tx	pelvis_ty	pelvis_tz	hip_flexion_r	hip_adduction_r	hip_rotation_r	knee_angle_r	knee_angle_r_beta	ankle_angle_r	subtalar_angle_r	mtp_angle_r	hip_flexion_l	hip_adduction_l	hip_rotation_l	knee_angle_l	knee_angle_l_beta	ankle_angle_l	subtalar_angle_l	mtp_angle_l	lumbar_extension	lumbar_bending	lumbar_rotation	arm_flex_r	arm_add_r	arm_rot_r	elbow_flex_r	pro_sup_r	wrist_flex_r	wrist_dev_r	arm_flex_l	arm_add_l	arm_rot_l	elbow_flex_l	pro_sup_l	wrist_flex_l	wrist_dev_l
9.279999999999891	-2.765253831316877	-0.860007462773633	30.11049592445345	0	0.9399999999999999	0	30.20288336907202	-9.304611602730141	-8.554736974733155	34.68450952486937	0.6053588906483045	0	0	0	30.20288336907202	-9.304611602730141	-8.554736974733155	34.68450952486937	0.6053588906483045	0	0	0	-2.345826275465	0.5764355397441836	9.525303598894615	18.54616343976527	-7.814220611906615	-3.647876479713432	3.542872593282274	135.9123504750026	0	0	100.8049506202656	-36.65521223504373	55.32110485616532	43.14890059911558	37.28152594241187	0	0
9.299999999999891	-2.726782968878393	-0.8734732021181258	30.16915045804474	0	0.9399999999999999	0	30.20543428938676	-9.305012452457644	-8.555272537108211	34.68701622414774	0.6054026408040695	8.291470812504143e-51	0	0	30.20543428938676	-9.305012452457644	-8.555272537108211	34.68701622414774	0.6054026408040695	8.291470812504143e-51	0	0	-2.3192801032185	0.5451747336273123	9.529848470151409	18.51964649891976	-7.823067421311729	-3.614347260424992	3.402993873657025	135.9217691922188	0	0	100.8758551019187	-36.67276497278321	55.37001542313362	43.29323582286142	37.51100271489398	0	0
9.31999999999989	-2.688721351225833	-0.898953838324529	30.24246251007305	0	0.9399999999999999	0	30.20915592240909	-9.305599213819807	-8.556055608042291	34.69066120232584	0.6054662576744407	0	0	0	30.20915592240909	-9.305599213819807	-8.556055608042291	34.69066120232584	0.6054662576744407	0	0	0	-2.299201541320789	0.5037386199464041	9.533878544945566	18.51822593477421	-7.807815871237879	-3.554918516598733	3.163563733668449	136.0087629271379	0	0	100.9083616525764	-36.68564537197219	55.42229647030287	43.43915710399376	37.88919750583166	0	0
9.33999999999989	-2.677813297615362	-0.8955815399605895	30.29251856069259	0	0.9399999999999999	0	30.21450661834079	-9.30644476192912	-8.557183249351548	34.69588776159238	0.6055574783421924	0	0	0	30.21450661834079	-9.30644476192912	-8.557183249351548	34.69588776159238	0.6055574783421924	0	0	0	-2.288251541582733	0.5013483901560202	9.528267069661858	18.55557242873012	-7.830656984884519	-3.461661190094343	3.072630812148863	135.8832594364466	0	0	100.8187223690455	-36.83009608662716	55.42302669239472	43.63422053915401	38.0761481737444	0	0
9.359999999999889	-2.633350231767546	-0.9167831275934465	30.41352778381546	0	0.9399999999999999	0	30.21867036421301	-9.307098152244583	-8.55805693715318	34.69997799640606	0.6056288664068709	0	0	0	30.21867036421301	-9.307098152244583	-8.55805693715318	34.69997799640606	0.6056288664068709	0	0	0	-2.260914698702319	0.4616554783536924	9.506873002147666	18.57719128435874	-7.811146671261269	-3.431537054580446	2.971960811496186	135.8514200079119	0	0	100.8500672420357	-36.81751561575484	55.53632351247089	43.62260911159467	39.06192182508394	0	0
9.379999999999889	-2.605235293983499	-0.9133235849078549	30.50797864978801	0	0.9399999999999999	0	30.22221791957844	-9.307654859150734	-8.558801401644802	34.70346141644765	0.6056896635558265	0	0	0	30.22221791957844	-9.307654859150734	-8.558801401644802	34.70346141644765	0.6056896635558265	0	0	0	-2.234701330653629	0.4493821586778005	9.527712157350056	18.51610805887857	-7.833939800126293	-3.540707026940423	2.976276590977607	135.9209721559517	0	0	100.8022622112273	-36.80139357029965	55.63799054696756	43.66167716331015	39.43316657734052	0	0
9.399999999999888	-2.566129945940203	-0.9216634009705851	30.61030638327854	0	0.9399999999999999	0	30.22628277810725	-9.308294175009779	-8.559655723992876	34.70744303982992	0.6057591559934216	0	0	0	30.22628277810725	-9.308294175009779	-8.559655723992876	34.70744303982992	0.6057591559934216	0	0	0	-2.204968508413279	0.4209970096178506	9.55368592509164	18.50991574055282	-7.866030513942463	-3.559185497072624	2.997570684154486	135.9221537058674	0	0	100.7171990451707	-36.74203138935579	55.77908155354712	43.68146497827886	39.73180823818827	0	0
